<svg width="900" height="900" viewBox="0 0 900 900" fill="none" xmlns="http://www.w3.org/2000/svg">
<path d="M450 368.28C404.87 368.28 368.28 404.87 368.28 450C368.28 495.13 404.87 531.72 450 531.72C495.13 531.72 531.72 495.13 531.72 450C531.72 404.87 495.13 368.28 450 368.28Z" fill="#D9D9D9"/>
<path d="M854.07 406.88H602.16L561.64 341.15L676.5 112.73L757.54 153.48L675.73 316.17H854.07V406.88Z" fill="#D9D9D9"/>
<path d="M740.62 572.73C724.74 610.27 701.99 644.01 673 673C644.01 701.99 610.27 724.74 572.73 740.62C533.91 757.04 492.62 765.37 450 765.37C407.38 765.37 366.09 757.04 327.27 740.62C289.73 724.74 255.99 701.99 227 673C198.01 644.01 175.26 610.27 159.38 572.73C142.96 533.91 134.63 492.62 134.63 450C134.63 407.38 142.96 366.09 159.38 327.27C175.26 289.73 198.01 255.99 227 227C255.99 198.01 289.73 175.26 327.27 159.38C366.09 142.96 407.38 134.63 450 134.63C492.62 134.63 533.91 142.96 572.73 159.38C578.17 161.68 583.51 164.14 588.79 166.73C602.23 139.64 615.67 112.56 629.12 85.4699C575.09 58.8699 514.3 43.9299 450.01 43.9299C225.74 43.9299 43.93 225.74 43.93 450.01C43.93 674.28 225.74 856.09 450.01 856.09C674.28 856.09 855.14 675.22 856.08 451.75L765.37 451.25C765.21 493.43 756.9 534.29 740.64 572.74L740.62 572.73Z" fill="#D9D9D9"/>
<path d="M621.29 450.44C621.18 496.03 603.37 538.87 571.13 571.12C538.78 603.47 495.76 621.29 450.01 621.29C404.26 621.29 361.24 603.47 328.89 571.12C296.54 538.77 278.72 495.75 278.72 450C278.72 404.25 296.54 361.23 328.89 328.88C361.24 296.53 404.26 278.71 450.01 278.71C476.33 278.71 501.74 284.62 524.75 295.79C538.19 268.71 551.62 241.64 565.06 214.56C530.33 197.56 491.29 188 450.02 188C305.32 188 188.02 305.3 188.02 450C188.02 594.7 305.32 712 450.02 712C594.72 712 711.5 595.21 712.01 450.94C681.78 450.77 651.54 450.61 621.31 450.44H621.29Z" fill="#D9D9D9"/>
</svg>
