<svg width="975" height="1019" viewBox="0 0 975 1019" fill="none" xmlns="http://www.w3.org/2000/svg">
<path d="M669.3 937.5C827.269 864.553 937.5 699.453 937.5 507.466C937.5 247.911 736.028 37.5 487.5 37.5C238.972 37.5 37.5 247.911 37.5 507.466C37.5 699.453 147.731 864.553 305.7 937.5" stroke="#22336E" stroke-width="75"/>
<path d="M621.5 812.5C728.792 756.833 812.5 637.363 812.5 503.327C812.5 315.093 666.993 162.5 487.5 162.5C308.007 162.5 162.5 315.093 162.5 503.327C162.5 640.244 239.485 758.304 350.536 812.5" stroke="#3EAEAC" stroke-width="75"/>
<path d="M579.242 674.087C641.245 641.873 684.542 578.051 687.067 503.243C690.794 392.849 604.323 300.335 493.929 296.608C383.535 292.882 291.022 379.353 287.295 489.747C284.594 569.765 329.281 640.388 396.119 674.615" stroke="#6BAFC4" stroke-width="75"/>
<circle cx="487.5" cy="487.5" r="100" fill="#F5F2EB"/>
<path d="M403 711.105L495 609.5L577.5 711.105L510.5 686.864C510.5 686.864 544.76 782.257 572 842.109C598.385 900.083 643.5 988.586 643.5 988.586C643.5 988.586 600 1018.5 495 1018.5C384 1018.5 347.5 988.586 347.5 988.586C347.5 988.586 391.508 900.378 416 842.109C441.056 782.498 474 686.864 474 686.864L403 711.105Z" fill="#F5A623"/>
</svg>
